<mxfile host="app.diagrams.net" agent="Mozilla/5.0 (Macintosh; Intel Mac OS X 10_15_7) AppleWebKit/537.36 (KHTML, like Gecko) Chrome/139.0.0.0 Safari/537.36" version="28.1.1">
  <diagram name="第 1 页" id="3A0OLKcVqah7NKnNItEz">
    <mxGraphModel dx="1018" dy="655" grid="1" gridSize="10" guides="1" tooltips="1" connect="1" arrows="1" fold="1" page="1" pageScale="1" pageWidth="827" pageHeight="1169" math="0" shadow="0">
      <root>
        <mxCell id="0" />
        <mxCell id="1" parent="0" />
        <mxCell id="0FTwlBslxzpN8b0XRQgb-3" value="" style="edgeStyle=orthogonalEdgeStyle;rounded=0;orthogonalLoop=1;jettySize=auto;html=1;" edge="1" parent="1" source="0FTwlBslxzpN8b0XRQgb-1" target="0FTwlBslxzpN8b0XRQgb-2">
          <mxGeometry relative="1" as="geometry" />
        </mxCell>
        <mxCell id="0FTwlBslxzpN8b0XRQgb-1" value="导入标签" style="ellipse;whiteSpace=wrap;html=1;" vertex="1" parent="1">
          <mxGeometry x="280" y="30" width="100" height="60" as="geometry" />
        </mxCell>
        <mxCell id="0FTwlBslxzpN8b0XRQgb-5" value="" style="edgeStyle=orthogonalEdgeStyle;rounded=0;orthogonalLoop=1;jettySize=auto;html=1;" edge="1" parent="1" source="0FTwlBslxzpN8b0XRQgb-2" target="0FTwlBslxzpN8b0XRQgb-4">
          <mxGeometry relative="1" as="geometry" />
        </mxCell>
        <mxCell id="0FTwlBslxzpN8b0XRQgb-2" value="支持自定义选择值类型" style="whiteSpace=wrap;html=1;" vertex="1" parent="1">
          <mxGeometry x="265" y="170" width="130" height="40" as="geometry" />
        </mxCell>
        <mxCell id="0FTwlBslxzpN8b0XRQgb-9" style="edgeStyle=orthogonalEdgeStyle;rounded=0;orthogonalLoop=1;jettySize=auto;html=1;entryX=0;entryY=0.5;entryDx=0;entryDy=0;dashed=1;" edge="1" parent="1" source="0FTwlBslxzpN8b0XRQgb-4" target="0FTwlBslxzpN8b0XRQgb-7">
          <mxGeometry relative="1" as="geometry" />
        </mxCell>
        <mxCell id="0FTwlBslxzpN8b0XRQgb-4" value="落值数据库" style="shape=cylinder3;whiteSpace=wrap;html=1;boundedLbl=1;backgroundOutline=1;size=15;" vertex="1" parent="1">
          <mxGeometry x="295" y="260" width="70" height="80" as="geometry" />
        </mxCell>
        <mxCell id="0FTwlBslxzpN8b0XRQgb-8" value="" style="edgeStyle=orthogonalEdgeStyle;rounded=0;orthogonalLoop=1;jettySize=auto;html=1;" edge="1" parent="1" source="0FTwlBslxzpN8b0XRQgb-6" target="0FTwlBslxzpN8b0XRQgb-7">
          <mxGeometry relative="1" as="geometry" />
        </mxCell>
        <mxCell id="0FTwlBslxzpN8b0XRQgb-6" value="人群圈选" style="ellipse;whiteSpace=wrap;html=1;" vertex="1" parent="1">
          <mxGeometry x="560" y="20" width="120" height="80" as="geometry" />
        </mxCell>
        <mxCell id="0FTwlBslxzpN8b0XRQgb-11" value="" style="edgeStyle=orthogonalEdgeStyle;rounded=0;orthogonalLoop=1;jettySize=auto;html=1;" edge="1" parent="1" source="0FTwlBslxzpN8b0XRQgb-7" target="0FTwlBslxzpN8b0XRQgb-10">
          <mxGeometry relative="1" as="geometry" />
        </mxCell>
        <mxCell id="0FTwlBslxzpN8b0XRQgb-7" value="组合标签" style="whiteSpace=wrap;html=1;" vertex="1" parent="1">
          <mxGeometry x="560" y="190" width="120" height="60" as="geometry" />
        </mxCell>
        <mxCell id="0FTwlBslxzpN8b0XRQgb-13" value="" style="edgeStyle=orthogonalEdgeStyle;rounded=0;orthogonalLoop=1;jettySize=auto;html=1;" edge="1" parent="1" source="0FTwlBslxzpN8b0XRQgb-10" target="0FTwlBslxzpN8b0XRQgb-12">
          <mxGeometry relative="1" as="geometry" />
        </mxCell>
        <mxCell id="0FTwlBslxzpN8b0XRQgb-10" value="sql拼装&lt;div&gt;判断cast转化&lt;/div&gt;" style="rhombus;whiteSpace=wrap;html=1;" vertex="1" parent="1">
          <mxGeometry x="560" y="320" width="120" height="90" as="geometry" />
        </mxCell>
        <mxCell id="0FTwlBslxzpN8b0XRQgb-12" value="holo执行输出结果" style="shape=process;whiteSpace=wrap;html=1;backgroundOutline=1;" vertex="1" parent="1">
          <mxGeometry x="555" y="500" width="130" height="60" as="geometry" />
        </mxCell>
      </root>
    </mxGraphModel>
  </diagram>
</mxfile>
